<svg xmlns="http://www.w3.org/2000/svg" width="809.169" height="168.957" viewBox="0 0 809.169 168.957">
  <g id="Component_1_1" data-name="Component 1 – 1" transform="translate(1)">
    <g id="Group_20" data-name="Group 20" transform="translate(8.297)">
      <path id="Path_20" data-name="Path 20" d="M231.239,3V107.65H215.5V3Z" transform="translate(342.146 59.595)" fill="#4285f4"/>
      <path id="Path_21" data-name="Path 21" d="M231.239,3V107.65H215.5V3Z" transform="translate(-88.155 59.595)" fill="#ea4335"/>
      <path id="Path_23" data-name="Path 23" d="M307.721,90.121l18.052,11.131c-5.826,7.973-19.867,21.71-44.127,21.71-30.087,0-52.556-21.512-52.556-48.986,0-29.131,23.448-52.922,50.741-52.922,27.484,0,40.149,26.985,44.543,37.917l1.4,7.82L251.413,84.321c5.42,9.828,18.414,19.361,30.234,19.361,11.844,0,20.058-5.389,26.075-13.561ZM247.592,67.977l56.876-12.8c-2.6-6.118-16.614-17.3-25.831-17.3-5.059,0-11.752.265-17.774,4.266A31.016,31.016,0,0,0,247.592,67.977Z" transform="translate(111.671 42.911)" fill="#ea4335"/>
      <path id="Path_29" data-name="Path 29" d="M307.721,90.121l18.052,11.131c-5.826,7.973-19.867,21.71-44.127,21.71-30.087,0-52.556-21.512-52.556-48.986,0-29.131,23.448-52.922,50.741-52.922,27.484,0,40.149,26.985,44.543,37.917l1.4,7.82L251.413,84.321c5.42,9.828,18.414,19.361,30.234,19.361,11.844,0,20.058-5.389,26.075-13.561ZM247.592,67.977l56.876-12.8c-2.6-6.118-16.614-17.3-25.831-17.3-5.059,0-11.752.265-17.774,4.266A31.016,31.016,0,0,0,247.592,67.977Z" transform="translate(474.099 44.283)" fill="#4285f4"/>
      <g id="Group_16" data-name="Group 16" transform="translate(596.249 62.276)">
        <path id="Path_30" data-name="Path 30" d="M231.239,3V107.65H215.5V3Z" transform="translate(-215.5 -0.968)" fill="#4285f4"/>
        <path id="Path_31" data-name="Path 31" d="M229.719,24.328c4.266,26.542,1.5,81.239,1.5,81.239H215.5V34.756s-2.109-9.926-8.4-15.167-16.771-5.8-16.771-5.8-9.415.743-15.86,7.109-9.918,18.357-9.918,18.357V22.178s2.99-7.474,7.365-12.031a28.805,28.805,0,0,1,10.142-7.227A36.3,36.3,0,0,1,189.388.824c1.1-.206,2.02-.387,3.447-.574C200.248-.731,208.481.093,215.5,4.9,220.548,8.347,228.294,15.463,229.719,24.328Z" transform="translate(-149.485 0.115)" fill="#4285f4"/>
      </g>
      <g id="Group_19" data-name="Group 19" transform="translate(458.944 1.427)">
        <path id="Path_33" data-name="Path 33" d="M16.748,0V69.564H0V0Z" transform="translate(7.592 166.078) rotate(-90)" fill="#4285f4"/>
        <path id="Path_35" data-name="Path 35" d="M0,166.078V0H16.748V166.078Z" transform="translate(0 0)" fill="#4285f4"/>
      </g>
      <g id="Group_17" data-name="Group 17" transform="translate(170.134 60.564)">
        <path id="Path_30-2" data-name="Path 30" d="M231.239,3V107.65H215.5V3Z" transform="translate(-215.5 -0.968)" fill="#ea4335"/>
        <path id="Path_31-2" data-name="Path 31" d="M229.719,24.328c4.266,26.542,1.5,81.239,1.5,81.239H215.5V34.756s-2.109-9.926-8.4-15.167-16.771-5.8-16.771-5.8-9.415.743-15.86,7.109-9.918,18.357-9.918,18.357V22.178s2.99-7.474,7.365-12.031a28.805,28.805,0,0,1,10.142-7.227A36.3,36.3,0,0,1,189.388.824c1.1-.206,2.02-.387,3.447-.574C200.248-.731,208.481.093,215.5,4.9,220.548,8.347,228.294,15.463,229.719,24.328Z" transform="translate(-149.485 0.115)" fill="#ea4335"/>
        <path id="Path_34" data-name="Path 34" d="M229.719,24.328c4.266,26.542,1.5,81.239,1.5,81.239H215.5V34.756s-2.109-9.926-8.4-15.167-16.771-5.8-16.771-5.8-9.415.743-15.86,7.109-9.918,18.357-9.918,18.357V22.178s2.99-7.474,7.365-12.031a28.805,28.805,0,0,1,10.142-7.227A36.3,36.3,0,0,1,189.388.824c1.1-.206,2.02-.387,3.447-.574C200.248-.731,208.481.093,215.5,4.9,220.548,8.347,228.294,15.463,229.719,24.328Z" transform="translate(-87.485 0.115)" fill="#ea4335"/>
      </g>
      <g id="Group_18" data-name="Group 18" transform="translate(0 0)">
        <path id="Path_27" data-name="Path 27" d="M231.643,3V153.673H215.5V3Z" transform="translate(-151.888 13.572)" fill="#ea4335"/>
        <path id="Path_28" data-name="Path 28" d="M16.143,0V145.285H0V0Z" transform="matrix(-0.208, -0.978, 0.978, -0.208, 3.356, 45.997)" fill="#ea4335"/>
      </g>
    </g>
    <g id="iconfinder_1061145_clock_journey_time_timing_travel_icon" transform="translate(0 40.62)">
      <path id="Path_36" data-name="Path 36" d="M4.2.2a13.8,13.8,0,0,1,0,27.6L0,27.5V0Z" transform="translate(9.511 35.254)" fill="#2b8a44"/>
      <path id="Path_42" data-name="Path 42" d="M14,33H0V0H14Z" transform="translate(6.705 53.995)" fill="#34a853"/>
      <rect id="Rectangle_25" data-name="Rectangle 25" width="14" height="33" transform="translate(6.705 53.995)" fill="none" stroke="#3d3d3d" stroke-miterlimit="10" stroke-width="2"/>
      <path id="Path_37" data-name="Path 37" d="M0,42.9H14V5.3L7,0,0,5.3Z" transform="translate(6.705 0)" fill="#34a853"/>
      <path id="Path_38" data-name="Path 38" d="M0,42.9H14V5.3L7,0,0,5.3Z" transform="translate(6.705 0)" fill="none" stroke="#3d3d3d" stroke-miterlimit="10" stroke-width="2"/>
      <path id="Path_39" data-name="Path 39" d="M4.1,0a14,14,0,0,1,0,28H0V0Z" transform="translate(9.511 34.891)" fill="none" stroke="#3d3d3d" stroke-miterlimit="10" stroke-width="2"/>
      <ellipse id="Ellipse_7" data-name="Ellipse 7" cx="11.605" cy="13.8" rx="11.605" ry="13.8" transform="translate(0 35.091)" fill="#fff"/>
      <ellipse id="Ellipse_8" data-name="Ellipse 8" cx="11.605" cy="13.8" rx="11.605" ry="13.8" transform="translate(0 35.091)" fill="none" stroke="#3d3d3d" stroke-miterlimit="10" stroke-width="2"/>
      <path id="Path_40" data-name="Path 40" d="M5,10V0H0" transform="translate(7.442 48.39)" fill="none" stroke="#3d3d3d" stroke-miterlimit="10" stroke-width="2"/>
      <path id="Path_41" data-name="Path 41" d="M.077,9a1.008,1.008,0,0,0,.847,1.1H13.863A1.008,1.008,0,0,0,14.711,9V1.1A1.008,1.008,0,0,0,13.863,0H.847A1.008,1.008,0,0,0,0,1.1V9Z" transform="translate(6.8 86.895)" fill="none" stroke="#3d3d3d" stroke-miterlimit="10" stroke-width="2"/>
      <line id="Line_13" data-name="Line 13" x2="0.205" y2="6.405" transform="translate(13.705 86.995)" fill="none" stroke="#3d3d3d" stroke-miterlimit="10" stroke-width="2"/>
      <ellipse id="Ellipse_9" data-name="Ellipse 9" cx="2.1" cy="2.1" rx="2.1" ry="2.1" transform="translate(11.605 13.8)" fill="#3d3d3d"/>
      <ellipse id="Ellipse_10" data-name="Ellipse 10" cx="2.1" cy="2.1" rx="2.1" ry="2.1" transform="translate(11.605 7.1)" fill="#3d3d3d"/>
      <ellipse id="Ellipse_11" data-name="Ellipse 11" cx="2.1" cy="2.1" rx="2.1" ry="2.1" transform="translate(11.605 20.33)" fill="#3d3d3d"/>
    </g>
  </g>
</svg>
